<svg id="Capa_1" enable-background="new 0 0 512 512" height="512" viewBox="0 0 512 512" width="512" xmlns="http://www.w3.org/2000/svg"><g><path d="m502 502c-28.712-109.023-127.961-189.425-246-189.425s-217.288 80.402-246 189.425z" fill="#ccf5fc"/><path d="m91.576 433.468 99.312-10.935c24.729-2.723 43.548-23.456 43.868-48.333l.492-60.781c-76.116 6.146-142.762 45.796-185.181 104.193 7.259-.379 14.628 2.282 20.017 7.974 5.535 5.846 13.489 8.764 21.492 7.882z" fill="#a0e5a5"/><path d="m502 502c-15.248-57.898-50.39-107.725-97.675-141.723h-43.049c-5.327 0-10.403 2.269-13.955 6.239l-25.826 28.862c-3.073 3.434-4.771 7.879-4.771 12.487v35.78c0 10.342 8.384 18.726 18.726 18.726h37.461c7.785 0 14.759 4.817 17.514 12.099l7.099 18.761c1.074 2.839 1.599 5.81 1.602 8.769z" fill="#a0e5a5"/><g><g><path d="m486.114 21.452c-7.705-7.914-20.367-8.082-28.281-.375l-48.538 47.269c-12.152 11.833-28.442 18.454-45.403 18.454-16.961 0-33.251-6.622-45.402-18.455l-48.538-47.269c-7.914-7.707-20.576-7.539-28.281.375-7.706 7.913-7.539 20.575.375 28.281l81.847 79.705v45.385h80v-45.385l81.847-79.705c7.913-7.705 8.08-20.367.374-28.28z" fill="#66e0f7"/><g><path id="XMLID_1296_" d="m403.892 174.823v185.232h-40v-119.287 119.287h-40v-185.232z" fill="#8aa8bd"/><path id="XMLID_1295_" d="m363.892 10c-18.09 0-32.755 14.665-32.755 32.755v11.29c0 18.09 14.665 32.755 32.755 32.755 18.09 0 32.755-14.665 32.755-32.755v-11.29c0-18.09-14.665-32.755-32.755-32.755z" fill="#cc9081"/></g></g><g><path d="m270.329 21.452c-7.705-7.914-20.367-8.082-28.281-.375l-48.538 47.269c-12.151 11.833-28.442 18.454-45.402 18.454-16.961 0-33.251-6.622-45.402-18.455l-48.539-47.268c-7.914-7.707-20.576-7.539-28.281.375-7.706 7.913-7.539 20.575.375 28.281l81.847 79.705v45.385h80v-45.385l81.847-79.705c7.913-7.706 8.08-20.368.374-28.281z" fill="#fff"/><g><path id="XMLID_1013_" d="m148.108 360.055h-40v-185.232h80v185.232z" fill="#8aa8bd"/><path id="XMLID_1288_" d="m148.108 10c-18.09 0-32.755 14.665-32.755 32.755v11.29c0 18.09 14.665 32.755 32.755 32.755 18.09 0 32.755-14.665 32.755-32.755v-11.29c0-18.09-14.665-32.755-32.755-32.755z" fill="#cc9081"/></g></g></g><path d="m270.271 475.933c-11.508-18.416-35.209-24.939-54.52-15.008-15.757 8.103-24.023 24.691-22.49 41.075h93.3z" fill="#a0e5a5"/><g><path d="m511.67 499.453c-15.176-57.627-49.824-108.782-97.777-144.552v-221.243l78.823-76.76c5.741-5.591 8.962-13.083 9.067-21.096.106-8.013-2.914-15.587-8.504-21.326-5.59-5.742-13.082-8.963-21.095-9.069-.137-.001-.272-.002-.409-.002-7.86 0-15.275 3.012-20.919 8.508l-44.329 43.168c.071-1.004.12-2.015.12-3.037v-11.29c0-23.574-19.179-42.754-42.754-42.754s-42.755 19.18-42.755 42.755v11.29c0 1.022.049 2.033.12 3.038l-44.329-43.169-.004.006c-5.525-5.388-12.779-8.409-20.525-8.512-7.995-.062-15.587 2.914-21.328 8.506l-44.329 43.169c.071-1.004.12-2.015.12-3.038v-11.29c-.001-23.575-19.18-42.755-42.756-42.755s-42.755 19.18-42.755 42.755v11.29c0 1.022.049 2.032.12 3.037l-44.328-43.169c-5.644-5.496-13.058-8.508-20.919-8.508-.136 0-.273.001-.409.002-8.013.106-15.505 3.327-21.094 9.068-5.591 5.74-8.611 13.314-8.505 21.327.105 8.013 3.326 15.505 9.067 21.095l78.823 76.761v221.239c-47.959 35.771-82.596 86.912-97.777 144.556-.79 2.999-.144 6.195 1.749 8.651 1.894 2.458 4.819 3.896 7.921 3.896h53.107c5.522 0 10-4.478 10-10s-4.478-10-10-10h-39.765c7.358-22.832 18.069-44.389 31.647-64 2.972.687 5.702 2.209 7.834 4.462 6.754 7.133 16.254 11.158 25.998 11.157 1.28 0 2.566-.069 3.851-.211l99.312-10.935c29.7-3.271 52.388-28.267 52.773-58.192l.417-51.461c3.602-.158 7.212-.245 10.827-.245 19.593 0 39.034 2.326 57.893 6.905v30.575c0 5.522 4.478 10 10 10h6.844l-16.692 18.654c-4.721 5.273-7.32 12.077-7.32 19.156v35.779c0 15.84 12.887 28.727 28.726 28.727h37.461c3.606 0 6.886 2.266 8.162 5.639l5.293 13.99h-94.262l-13.353-21.366c-6.899-11.039-17.61-19.021-30.161-22.476-12.55-3.457-25.838-2.079-37.413 3.874-15.615 8.03-25.787 23.049-27.749 39.968h-30.322c-5.522 0-10 4.478-10 10s4.478 10 10 10h348.892c3.102 0 6.027-1.439 7.921-3.896 1.892-2.456 2.539-5.652 1.749-8.651zm-137.777-273.131c0-5.522-4.478-10-10-10s-10 4.478-10 10v123.732h-20v-165.231h60v165.231h-20zm-32.755-183.567c0-12.547 10.208-22.755 22.755-22.755s22.755 10.208 22.755 22.755v11.29c0 12.547-10.208 22.755-22.755 22.755s-22.755-10.208-22.755-22.755zm22.755 54.045c19.68 0 38.281-7.561 52.378-21.29l48.539-47.269c1.914-1.863 4.431-2.883 7.109-2.835 2.671.035 5.167 1.108 7.031 3.022 1.863 1.914 2.87 4.438 2.835 7.109s-1.108 5.168-3.022 7.031l-81.847 79.705c-1.934 1.882-3.023 4.466-3.023 7.164v35.385h-60v-35.385c0-2.698-1.09-5.282-3.023-7.164l-60.536-58.952 6.597-6.424c2.675-2.605 4.795-5.626 6.315-8.917l28.268 27.528c14.096 13.731 32.699 21.292 52.379 21.292zm-238.54-54.045c0-12.547 10.208-22.755 22.755-22.755s22.755 10.208 22.755 22.755v11.29c0 12.547-10.208 22.755-22.755 22.755s-22.755-10.208-22.755-22.755zm-92.116-.187c-1.914-1.862-2.987-4.359-3.022-7.03s.972-5.195 2.836-7.11c1.863-1.913 4.359-2.986 7.03-3.021.045-.001.09-.001.136-.001 2.62 0 5.092 1.004 6.974 2.836l48.538 47.268c14.097 13.729 32.698 21.29 52.378 21.29s38.282-7.561 52.379-21.29l48.538-47.269c1.914-1.863 4.464-2.883 7.109-2.835 2.671.035 5.167 1.108 7.03 3.021 0 .001.001.001.001.001 1.863 1.914 2.87 4.438 2.835 7.109s-1.108 5.168-3.022 7.031l-81.847 79.705c-1.934 1.882-3.023 4.466-3.023 7.164v35.385h-60v-35.385c0-2.698-1.09-5.282-3.023-7.164zm124.87 183.754c0-5.522-4.478-10-10-10s-10 4.478-10 10v123.732h-20v-165.231h60v165.231h-20zm66.65 147.749c-.255 19.795-15.286 36.355-34.964 38.522l-99.311 10.935c-4.867.539-9.774-1.267-13.137-4.817-2.858-3.019-6.186-5.468-9.812-7.301 12.741-15.431 27.411-29.344 43.717-41.355h76.856c5.522 0 10-4.478 10-10v-30.577c8.902-2.161 17.934-3.816 27.05-4.964zm31.243-71.496c-19.556 0-38.974 2.141-57.893 6.366v-175.283l57.893-56.377 57.892 56.377v175.286c-18.919-4.225-38.339-6.369-57.892-6.369zm-52.349 189.425c1.813-9.415 7.82-17.629 16.673-22.183 14.567-7.491 32.785-2.479 41.467 11.416l6.729 10.767zm203.999 0c-.233-.776-7.871-21.067-7.871-21.067-4.2-11.103-14.998-18.562-26.868-18.562h-37.461c-4.812 0-8.726-3.915-8.726-8.727v-35.779c0-2.15.789-4.217 2.224-5.819l28.626-31.991h43.172c41.421 30.508 72.254 73.362 87.912 121.945z"/><circle cx="108.109" cy="502" r="10"/></g></g></svg>